<?xml version="1.0" standalone="no"?>
<!DOCTYPE svg PUBLIC "-//W3C//DTD SVG 20010904//EN"
 "http://www.w3.org/TR/2001/REC-SVG-20010904/DTD/svg10.dtd">
<svg version="1.0" xmlns="http://www.w3.org/2000/svg"
 width="512.000000pt" height="512.000000pt" viewBox="0 0 512.000000 512.000000"
 preserveAspectRatio="xMidYMid meet">

<g transform="translate(0.000000,512.000000) scale(0.100000,-0.100000)"
fill="#000000" stroke="none">
<path d="M2370 5113 c-379 -36 -661 -116 -980 -278 -378 -193 -717 -497 -965
-865 -104 -156 -232 -419 -294 -605 -49 -150 -89 -321 -113 -490 -17 -118 -17
-512 0 -630 42 -295 120 -553 242 -800 137 -280 272 -468 494 -691 221 -220
412 -357 681 -489 188 -92 309 -137 500 -185 500 -126 1002 -102 1490 71 150
53 408 183 540 271 302 202 573 480 769 788 72 113 188 353 235 486 235 662
194 1372 -115 1993 -124 250 -263 447 -458 648 -214 222 -430 379 -711 518
-296 146 -572 225 -900 255 -102 9 -333 11 -415 3z m545 -342 c628 -106 1158
-448 1511 -977 179 -267 296 -573 351 -909 24 -153 24 -497 0 -650 -108 -668
-474 -1222 -1042 -1580 -243 -153 -537 -261 -850 -312 -154 -24 -497 -24 -650
1 -657 107 -1198 456 -1557 1006 -168 257 -281 557 -335 885 -24 153 -24 497
0 650 81 497 291 912 636 1255 382 381 862 605 1401 654 108 10 418 -4 535
-23z"/>
<path d="M3295 3896 c-67 -30 -92 -80 -98 -195 l-2 -53 -63 -24 c-184 -69
-338 -245 -388 -444 -24 -95 -15 -262 18 -352 36 -96 84 -171 154 -242 116
-115 239 -169 422 -185 126 -11 186 -35 247 -98 57 -58 78 -107 83 -194 6
-102 -14 -162 -79 -233 -66 -73 -130 -101 -229 -100 -89 0 -146 22 -210 80
-54 49 -100 142 -100 204 -1 147 -140 231 -257 155 -87 -58 -86 -231 4 -415
52 -108 170 -225 280 -278 45 -22 90 -42 101 -44 17 -5 20 -16 23 -86 4 -87
18 -115 73 -156 39 -29 133 -29 172 0 54 40 68 69 74 155 l5 81 60 22 c186 68
337 237 391 438 19 72 18 235 -2 312 -53 204 -224 384 -423 446 -35 11 -110
24 -166 29 -131 11 -189 36 -254 107 -57 63 -81 123 -81 208 0 122 67 229 178
283 46 23 70 27 132 27 99 1 163 -27 229 -100 53 -58 75 -111 86 -206 4 -33
16 -71 28 -89 65 -96 200 -96 264 1 19 27 23 47 23 108 0 246 -177 491 -412
571 l-53 18 -5 81 c-6 86 -20 116 -72 155 -33 25 -113 32 -153 13z"/>
<path d="M1225 3656 c-46 -21 -83 -66 -94 -116 -15 -63 -15 -1891 0 -1959 8
-38 20 -58 49 -85 69 -62 155 -58 220 9 l35 36 5 402 5 402 120 2 120 3 278
-429 c263 -406 281 -431 323 -452 77 -37 150 -15 202 62 20 28 23 44 20 89 -4
52 -15 72 -231 404 l-227 349 90 44 c177 86 312 252 355 435 19 82 19 238 0
313 -55 216 -217 392 -434 469 l-86 31 -360 2 c-289 3 -366 0 -390 -11z m767
-338 c70 -32 136 -97 168 -163 35 -72 39 -190 10 -267 -28 -75 -96 -150 -168
-185 l-57 -28 -252 -3 -253 -3 0 334 c0 183 3 337 7 341 5 4 116 6 248 4 236
-3 241 -3 297 -30z"/>
</g>
</svg>
